<svg xmlns="http://www.w3.org/2000/svg" viewBox="0 0 320 240" role="img" aria-label="Circular NeoPixel ring with 16 lit LEDs in rainbow colours">
<title>NeoPixel LED ring</title>
<ellipse cx="160" cy="224" rx="100" ry="9" fill="#121a20" opacity=".18"/>
<path fill-rule="evenodd" fill="#121a20" d="M160 12a104 104 0 1 0 0.01 0ZM160 62a54 54 0 1 1 -0.01 0Z"/>
<circle cx="160" cy="116" r="104" fill="none" stroke="#2b3942" stroke-width="2"/>
<circle cx="160" cy="116" r="54" fill="none" stroke="#2b3942" stroke-width="2"/>
<circle cx="160.0" cy="37.0" r="19" fill="#ff1919" opacity=".25"/><rect x="151.0" y="28.0" width="18" height="18" rx="3" fill="#eef3f0" transform="rotate(0.0 160.0 37.0)"/><circle cx="160.0" cy="37.0" r="6" fill="#ff1919"/><circle cx="158.5" cy="35.5" r="2" fill="#fff" opacity=".8"/><circle cx="190.2" cy="43.0" r="19" fill="#ff6f19" opacity=".25"/><rect x="181.2" y="34.0" width="18" height="18" rx="3" fill="#eef3f0" transform="rotate(22.5 190.2 43.0)"/><circle cx="190.2" cy="43.0" r="6" fill="#ff6f19"/><circle cx="188.7" cy="41.5" r="2" fill="#fff" opacity=".8"/><circle cx="215.9" cy="60.1" r="19" fill="#ffc519" opacity=".25"/><rect x="206.9" y="51.1" width="18" height="18" rx="3" fill="#eef3f0" transform="rotate(45.0 215.9 60.1)"/><circle cx="215.9" cy="60.1" r="6" fill="#ffc519"/><circle cx="214.4" cy="58.6" r="2" fill="#fff" opacity=".8"/><circle cx="233.0" cy="85.8" r="19" fill="#e2ff19" opacity=".25"/><rect x="224.0" y="76.8" width="18" height="18" rx="3" fill="#eef3f0" transform="rotate(67.5 233.0 85.8)"/><circle cx="233.0" cy="85.8" r="6" fill="#e2ff19"/><circle cx="231.5" cy="84.3" r="2" fill="#fff" opacity=".8"/><circle cx="239.0" cy="116.0" r="19" fill="#8cff19" opacity=".25"/><rect x="230.0" y="107.0" width="18" height="18" rx="3" fill="#eef3f0" transform="rotate(90.0 239.0 116.0)"/><circle cx="239.0" cy="116.0" r="6" fill="#8cff19"/><circle cx="237.5" cy="114.5" r="2" fill="#fff" opacity=".8"/><circle cx="233.0" cy="146.2" r="19" fill="#36ff19" opacity=".25"/><rect x="224.0" y="137.2" width="18" height="18" rx="3" fill="#eef3f0" transform="rotate(112.5 233.0 146.2)"/><circle cx="233.0" cy="146.2" r="6" fill="#36ff19"/><circle cx="231.5" cy="144.7" r="2" fill="#fff" opacity=".8"/><circle cx="215.9" cy="171.9" r="19" fill="#19ff52" opacity=".25"/><rect x="206.9" y="162.9" width="18" height="18" rx="3" fill="#eef3f0" transform="rotate(135.0 215.9 171.9)"/><circle cx="215.9" cy="171.9" r="6" fill="#19ff52"/><circle cx="214.4" cy="170.4" r="2" fill="#fff" opacity=".8"/><circle cx="190.2" cy="189.0" r="19" fill="#19ffa8" opacity=".25"/><rect x="181.2" y="180.0" width="18" height="18" rx="3" fill="#eef3f0" transform="rotate(157.5 190.2 189.0)"/><circle cx="190.2" cy="189.0" r="6" fill="#19ffa8"/><circle cx="188.7" cy="187.5" r="2" fill="#fff" opacity=".8"/><circle cx="160.0" cy="195.0" r="19" fill="#19ffff" opacity=".25"/><rect x="151.0" y="186.0" width="18" height="18" rx="3" fill="#eef3f0" transform="rotate(180.0 160.0 195.0)"/><circle cx="160.0" cy="195.0" r="6" fill="#19ffff"/><circle cx="158.5" cy="193.5" r="2" fill="#fff" opacity=".8"/><circle cx="129.8" cy="189.0" r="19" fill="#19a8ff" opacity=".25"/><rect x="120.8" y="180.0" width="18" height="18" rx="3" fill="#eef3f0" transform="rotate(202.5 129.8 189.0)"/><circle cx="129.8" cy="189.0" r="6" fill="#19a8ff"/><circle cx="128.3" cy="187.5" r="2" fill="#fff" opacity=".8"/><circle cx="104.1" cy="171.9" r="19" fill="#1952ff" opacity=".25"/><rect x="95.1" y="162.9" width="18" height="18" rx="3" fill="#eef3f0" transform="rotate(225.0 104.1 171.9)"/><circle cx="104.1" cy="171.9" r="6" fill="#1952ff"/><circle cx="102.6" cy="170.4" r="2" fill="#fff" opacity=".8"/><circle cx="87.0" cy="146.2" r="19" fill="#3619ff" opacity=".25"/><rect x="78.0" y="137.2" width="18" height="18" rx="3" fill="#eef3f0" transform="rotate(247.5 87.0 146.2)"/><circle cx="87.0" cy="146.2" r="6" fill="#3619ff"/><circle cx="85.5" cy="144.7" r="2" fill="#fff" opacity=".8"/><circle cx="81.0" cy="116.0" r="19" fill="#8c19ff" opacity=".25"/><rect x="72.0" y="107.0" width="18" height="18" rx="3" fill="#eef3f0" transform="rotate(270.0 81.0 116.0)"/><circle cx="81.0" cy="116.0" r="6" fill="#8c19ff"/><circle cx="79.5" cy="114.5" r="2" fill="#fff" opacity=".8"/><circle cx="87.0" cy="85.8" r="19" fill="#e219ff" opacity=".25"/><rect x="78.0" y="76.8" width="18" height="18" rx="3" fill="#eef3f0" transform="rotate(292.5 87.0 85.8)"/><circle cx="87.0" cy="85.8" r="6" fill="#e219ff"/><circle cx="85.5" cy="84.3" r="2" fill="#fff" opacity=".8"/><circle cx="104.1" cy="60.1" r="19" fill="#ff19c5" opacity=".25"/><rect x="95.1" y="51.1" width="18" height="18" rx="3" fill="#eef3f0" transform="rotate(315.0 104.1 60.1)"/><circle cx="104.1" cy="60.1" r="6" fill="#ff19c5"/><circle cx="102.6" cy="58.6" r="2" fill="#fff" opacity=".8"/><circle cx="129.8" cy="43.0" r="19" fill="#ff196f" opacity=".25"/><rect x="120.8" y="34.0" width="18" height="18" rx="3" fill="#eef3f0" transform="rotate(337.5 129.8 43.0)"/><circle cx="129.8" cy="43.0" r="6" fill="#ff196f"/><circle cx="128.3" cy="41.5" r="2" fill="#fff" opacity=".8"/></svg>
