<svg xmlns="http://www.w3.org/2000/svg" viewBox="0 0 320 240" width="320" height="240" role="img" aria-label="IR obstacle avoidance module: board with a clear IR LED and a dark receiver LED facing forward, trimmer and chip">
  <title>IR obstacle avoidance module: board with a clear IR LED and a dark receiver LED facing forward, trimmer and chip</title>
  <ellipse cx="160" cy="206" rx="104" ry="9" fill="#121a20" opacity="0.16"/><rect x="126.4" y="166" width="3.2" height="22" fill="#d7c27a" stroke="#8a7a3a" stroke-width="0.6"/><circle cx="128" cy="164" r="2.2" fill="#d7c27a"/><rect x="158.4" y="166" width="3.2" height="22" fill="#d7c27a" stroke="#8a7a3a" stroke-width="0.6"/><circle cx="160" cy="164" r="2.2" fill="#d7c27a"/><rect x="190.4" y="166" width="3.2" height="22" fill="#d7c27a" stroke="#8a7a3a" stroke-width="0.6"/><circle cx="192" cy="164" r="2.2" fill="#d7c27a"/><text x="128" y="158" font-family="Arial, Helvetica, sans-serif" font-size="5.5" fill="#e8f0f8" text-anchor="middle" opacity="0.88">OUT</text><text x="160" y="158" font-family="Arial, Helvetica, sans-serif" font-size="5.5" fill="#e8f0f8" text-anchor="middle" opacity="0.88">GND</text><text x="192" y="158" font-family="Arial, Helvetica, sans-serif" font-size="5.5" fill="#e8f0f8" text-anchor="middle" opacity="0.88">VCC</text><rect x="70" y="64" width="180" height="104" rx="5" fill="#1f5fae" stroke="#154a8c" stroke-width="2"/><rect x="73" y="67" width="174" height="98" rx="3" fill="none" stroke="#fff" stroke-opacity="0.12"/><circle cx="81" cy="75" r="4" fill="#b65c2e"/><circle cx="81" cy="75" r="2.24" fill="#0d1a24"/><circle cx="239" cy="75" r="4" fill="#b65c2e"/><circle cx="239" cy="75" r="2.24" fill="#0d1a24"/><circle cx="81" cy="157" r="4" fill="#b65c2e"/><circle cx="81" cy="157" r="2.24" fill="#0d1a24"/><circle cx="239" cy="157" r="4" fill="#b65c2e"/><circle cx="239" cy="157" r="2.24" fill="#0d1a24"/><ellipse cx="108" cy="78" rx="8" ry="12" fill="#e6f0f4" stroke="#8d969b" stroke-width="1.4"/><ellipse cx="136" cy="78" rx="8" ry="12" fill="#2a2a38" stroke="#555" stroke-width="1.4"/><rect x="168" y="82" width="18" height="18" rx="2" fill="#1b4fa0" stroke="#0f3770" stroke-width="1"/><circle cx="177" cy="91" r="6" fill="#d7c27a" stroke="#8a7a3a" stroke-width="0.8"/><rect x="172.5" y="90" width="9" height="2" fill="#6b5a1f"/><rect x="194" y="112" width="24" height="14" rx="1.5" fill="#121a20"/><circle cx="198" cy="116" r="1.3" fill="#50606a"/><rect x="196" y="109.5" width="2" height="2.5" fill="#c9cfd3"/><rect x="196" y="126" width="2" height="2.5" fill="#c9cfd3"/><rect x="202" y="109.5" width="2" height="2.5" fill="#c9cfd3"/><rect x="202" y="126" width="2" height="2.5" fill="#c9cfd3"/><rect x="208" y="109.5" width="2" height="2.5" fill="#c9cfd3"/><rect x="208" y="126" width="2" height="2.5" fill="#c9cfd3"/><rect x="214" y="109.5" width="2" height="2.5" fill="#c9cfd3"/><rect x="214" y="126" width="2" height="2.5" fill="#c9cfd3"/><rect x="226" y="84" width="9" height="6" rx="1.2" fill="#d9342b" stroke="#121a20" stroke-width="0.8"/><rect x="228" y="85" width="3" height="1.4" rx="0.5" fill="#fff" opacity="0.5"/><rect x="226" y="100" width="9" height="6" rx="1.2" fill="#3ac26a" stroke="#121a20" stroke-width="0.8"/><rect x="228" y="101" width="3" height="1.4" rx="0.5" fill="#fff" opacity="0.5"/>
</svg>
