<svg xmlns="http://www.w3.org/2000/svg" viewBox="0 0 320 240" width="320" height="240" role="img" aria-label="VL53L0X distance sensor: small board with a laser emitter window and a receiver window under a chip">
  <title>VL53L0X distance sensor: small board with a laser emitter window and a receiver window under a chip</title>
  <ellipse cx="160" cy="206" rx="104" ry="9" fill="#121a20" opacity="0.16"/><rect x="90.4" y="168" width="3.2" height="22" fill="#d7c27a" stroke="#8a7a3a" stroke-width="0.6"/><circle cx="92" cy="166" r="2.2" fill="#d7c27a"/><rect x="117.60000000000001" y="168" width="3.2" height="22" fill="#d7c27a" stroke="#8a7a3a" stroke-width="0.6"/><circle cx="119.2" cy="166" r="2.2" fill="#d7c27a"/><rect x="144.8" y="168" width="3.2" height="22" fill="#d7c27a" stroke="#8a7a3a" stroke-width="0.6"/><circle cx="146.4" cy="166" r="2.2" fill="#d7c27a"/><rect x="172" y="168" width="3.2" height="22" fill="#d7c27a" stroke="#8a7a3a" stroke-width="0.6"/><circle cx="173.6" cy="166" r="2.2" fill="#d7c27a"/><rect x="199.20000000000002" y="168" width="3.2" height="22" fill="#d7c27a" stroke="#8a7a3a" stroke-width="0.6"/><circle cx="200.8" cy="166" r="2.2" fill="#d7c27a"/><rect x="226.4" y="168" width="3.2" height="22" fill="#d7c27a" stroke="#8a7a3a" stroke-width="0.6"/><circle cx="228" cy="166" r="2.2" fill="#d7c27a"/><text x="92" y="160" font-family="Arial, Helvetica, sans-serif" font-size="5.5" fill="#e8f0f8" text-anchor="middle" opacity="0.88">VIN</text><text x="119.2" y="160" font-family="Arial, Helvetica, sans-serif" font-size="5.5" fill="#e8f0f8" text-anchor="middle" opacity="0.88">GND</text><text x="146.4" y="160" font-family="Arial, Helvetica, sans-serif" font-size="5.5" fill="#e8f0f8" text-anchor="middle" opacity="0.88">SCL</text><text x="173.6" y="160" font-family="Arial, Helvetica, sans-serif" font-size="5.5" fill="#e8f0f8" text-anchor="middle" opacity="0.88">SDA</text><text x="200.8" y="160" font-family="Arial, Helvetica, sans-serif" font-size="5.5" fill="#e8f0f8" text-anchor="middle" opacity="0.88">GPIO1</text><text x="228" y="160" font-family="Arial, Helvetica, sans-serif" font-size="5.5" fill="#e8f0f8" text-anchor="middle" opacity="0.88">XSHUT</text><rect x="56" y="52" width="208" height="118" rx="5" fill="#1d1d1f" stroke="#000" stroke-width="2"/><rect x="59" y="55" width="202" height="112" rx="3" fill="none" stroke="#fff" stroke-opacity="0.12"/><circle cx="67" cy="63" r="4" fill="#b65c2e"/><circle cx="67" cy="63" r="2.24" fill="#0d1a24"/><circle cx="253" cy="63" r="4" fill="#b65c2e"/><circle cx="253" cy="63" r="2.24" fill="#0d1a24"/><circle cx="67" cy="159" r="4" fill="#b65c2e"/><circle cx="67" cy="159" r="2.24" fill="#0d1a24"/><circle cx="253" cy="159" r="4" fill="#b65c2e"/><circle cx="253" cy="159" r="2.24" fill="#0d1a24"/><rect x="116" y="76" width="88" height="34" rx="3" fill="#c9cfd3" stroke="#8d969b" stroke-width="1.5"/><rect x="124" y="84" width="22" height="18" rx="2" fill="#7a1a1f" stroke="#2c3338"/><rect x="174" y="84" width="22" height="18" rx="2" fill="#2a2a38" stroke="#2c3338"/><path d="M135 76 l-18 -26 M145 76 l-4 -30" stroke="#d9342b" stroke-width="1.6" stroke-dasharray="3 3" opacity=".7"/><rect x="88" y="128" width="8" height="4" fill="#2a2f33"/><rect x="87" y="128" width="1.4" height="4" fill="#c9cfd3"/><rect x="95.6" y="128" width="1.4" height="4" fill="#c9cfd3"/><rect x="108" y="128" width="8" height="4" fill="#2a2f33"/><rect x="107" y="128" width="1.4" height="4" fill="#c9cfd3"/><rect x="115.6" y="128" width="1.4" height="4" fill="#c9cfd3"/><rect x="232" y="86" width="9" height="6" rx="1.2" fill="#3ac26a" stroke="#121a20" stroke-width="0.8"/><rect x="234" y="87" width="3" height="1.4" rx="0.5" fill="#fff" opacity="0.5"/>
</svg>
