<svg xmlns="http://www.w3.org/2000/svg" viewBox="0 0 320 240" width="320" height="240" role="img" aria-label="Arduino Leonardo: teal Uno-shaped board with a micro USB port, a black DC jack, a small square chip and two long black headers">
  <title>Arduino Leonardo: teal Uno-shaped board with a micro USB port, a black DC jack, a small square chip and two long black headers</title>
  <ellipse cx="160" cy="196" rx="128" ry="8" fill="#121a20" opacity="0.16"/>
  <rect x="40" y="50" width="244" height="136" rx="5" fill="#00878f" stroke="#05070a" stroke-width="2"/>
  <rect x="43" y="53" width="238" height="130" rx="3" fill="none" stroke="#fff" stroke-opacity="0.14"/>
  <rect x="94" y="57" width="177" height="10" rx="1.5" fill="#0a0d10"/><circle cx="100" cy="62" r="2.2" fill="#d7c27a"/><circle cx="111" cy="62" r="2.2" fill="#d7c27a"/><circle cx="122" cy="62" r="2.2" fill="#d7c27a"/><circle cx="133" cy="62" r="2.2" fill="#d7c27a"/><circle cx="144" cy="62" r="2.2" fill="#d7c27a"/><circle cx="155" cy="62" r="2.2" fill="#d7c27a"/><circle cx="166" cy="62" r="2.2" fill="#d7c27a"/><circle cx="177" cy="62" r="2.2" fill="#d7c27a"/><circle cx="188" cy="62" r="2.2" fill="#d7c27a"/><circle cx="199" cy="62" r="2.2" fill="#d7c27a"/><circle cx="210" cy="62" r="2.2" fill="#d7c27a"/><circle cx="221" cy="62" r="2.2" fill="#d7c27a"/><circle cx="232" cy="62" r="2.2" fill="#d7c27a"/><circle cx="243" cy="62" r="2.2" fill="#d7c27a"/><circle cx="254" cy="62" r="2.2" fill="#d7c27a"/><circle cx="265" cy="62" r="2.2" fill="#d7c27a"/>
  <rect x="94" y="169" width="177" height="10" rx="1.5" fill="#0a0d10"/><circle cx="100" cy="174" r="2.2" fill="#d7c27a"/><circle cx="111" cy="174" r="2.2" fill="#d7c27a"/><circle cx="122" cy="174" r="2.2" fill="#d7c27a"/><circle cx="133" cy="174" r="2.2" fill="#d7c27a"/><circle cx="144" cy="174" r="2.2" fill="#d7c27a"/><circle cx="155" cy="174" r="2.2" fill="#d7c27a"/><circle cx="166" cy="174" r="2.2" fill="#d7c27a"/><circle cx="177" cy="174" r="2.2" fill="#d7c27a"/><circle cx="188" cy="174" r="2.2" fill="#d7c27a"/><circle cx="199" cy="174" r="2.2" fill="#d7c27a"/><circle cx="210" cy="174" r="2.2" fill="#d7c27a"/><circle cx="221" cy="174" r="2.2" fill="#d7c27a"/><circle cx="232" cy="174" r="2.2" fill="#d7c27a"/><circle cx="243" cy="174" r="2.2" fill="#d7c27a"/><circle cx="254" cy="174" r="2.2" fill="#d7c27a"/><circle cx="265" cy="174" r="2.2" fill="#d7c27a"/>
  <rect x="34" y="86" width="26" height="20" rx="3" fill="#aeb6bb" stroke="#6d777d" stroke-width="1.5"/>
  <rect x="40" y="91" width="16" height="10" rx="2" fill="#14181b"/>
  <rect x="34" y="128" width="40" height="38" rx="3" fill="#15181c" stroke="#05070a" stroke-width="1.5"/>
  <circle cx="54" cy="147" r="8" fill="#2a3036"/>
  <rect x="128" y="100" width="34" height="34" rx="2" fill="#14181b" stroke="#05070a" stroke-width="1"/>
  <circle cx="133" cy="105" r="1.4" fill="#50606a"/>
  <text x="145" y="119.66666666666667" font-family="Arial, Helvetica, sans-serif" font-size="8" font-weight="700" fill="#cfd6db" text-anchor="middle">32U4</text>
  <rect x="86" y="116" width="14" height="12" rx="2" fill="#d5dade" stroke="#8c96a0" stroke-width="1"/>
  <rect x="90" y="119" width="6" height="6" rx="3" fill="#6d777d"/>
  <rect x="210" y="112" width="8" height="5" rx="1.2" fill="#e8a93b" stroke="#121a20" stroke-width="0.8"/>
  <rect x="226" y="108" width="26" height="30" rx="2" fill="#0b4f54" stroke="#05070a"/>
  <text x="190" y="150" font-family="Arial, Helvetica, sans-serif" font-size="11" font-weight="700" fill="#e8f0f8" text-anchor="middle" opacity="0.92">LEONARDO</text>
</svg>
