<svg xmlns="http://www.w3.org/2000/svg" viewBox="0 0 320 240" width="320" height="240" role="img" aria-label="BBC micro:bit V2: light grey square board with a five by five grid of red LEDs, buttons A and B on each side, a small gold touch logo and a gold edge connector with five large pads at the bottom">
  <title>BBC micro:bit V2: light grey square board with a five by five grid of red LEDs, buttons A and B on each side, a small gold touch logo and a gold edge connector with five large pads at the bottom</title>
  <ellipse cx="160" cy="204" rx="110" ry="8" fill="#121a20" opacity="0.16"/>
  <rect x="84" y="30" width="152" height="164" rx="12" fill="#e9ecee" stroke="#8c96a0" stroke-width="2"/>
  <rect x="88" y="34" width="144" height="156" rx="9" fill="none" stroke="#fff" stroke-opacity="0.6"/>
  <rect x="124" y="58" width="72" height="72" rx="4" fill="#1c2128" stroke="#05070a"/>
  <circle cx="136" cy="70" r="3.2" fill="#e5483b"/><circle cx="148" cy="70" r="3.2" fill="#6b2a2a"/><circle cx="160" cy="70" r="3.2" fill="#6b2a2a"/><circle cx="172" cy="70" r="3.2" fill="#e5483b"/><circle cx="184" cy="70" r="3.2" fill="#6b2a2a"/><circle cx="136" cy="82" r="3.2" fill="#6b2a2a"/><circle cx="148" cy="82" r="3.2" fill="#6b2a2a"/><circle cx="160" cy="82" r="3.2" fill="#e5483b"/><circle cx="172" cy="82" r="3.2" fill="#6b2a2a"/><circle cx="184" cy="82" r="3.2" fill="#6b2a2a"/><circle cx="136" cy="94" r="3.2" fill="#6b2a2a"/><circle cx="148" cy="94" r="3.2" fill="#e5483b"/><circle cx="160" cy="94" r="3.2" fill="#6b2a2a"/><circle cx="172" cy="94" r="3.2" fill="#6b2a2a"/><circle cx="184" cy="94" r="3.2" fill="#e5483b"/><circle cx="136" cy="106" r="3.2" fill="#e5483b"/><circle cx="148" cy="106" r="3.2" fill="#6b2a2a"/><circle cx="160" cy="106" r="3.2" fill="#6b2a2a"/><circle cx="172" cy="106" r="3.2" fill="#e5483b"/><circle cx="184" cy="106" r="3.2" fill="#6b2a2a"/><circle cx="136" cy="118" r="3.2" fill="#6b2a2a"/><circle cx="148" cy="118" r="3.2" fill="#6b2a2a"/><circle cx="160" cy="118" r="3.2" fill="#e5483b"/><circle cx="172" cy="118" r="3.2" fill="#6b2a2a"/><circle cx="184" cy="118" r="3.2" fill="#6b2a2a"/>
  <circle cx="102" cy="94" r="9" fill="#2b3138" stroke="#05070a"/>
  <text x="102" y="98" font-family="Arial, Helvetica, sans-serif" font-size="10" font-weight="700" fill="#e8f0f8" text-anchor="middle" opacity="0.92">A</text>
  <circle cx="218" cy="94" r="9" fill="#2b3138" stroke="#05070a"/>
  <text x="218" y="98" font-family="Arial, Helvetica, sans-serif" font-size="10" font-weight="700" fill="#e8f0f8" text-anchor="middle" opacity="0.92">B</text>
  <rect x="148" y="42" width="24" height="10" rx="5" fill="#d7c27a" stroke="#8c7a2a"/>
  <rect x="146" y="146" width="28" height="14" rx="2" fill="#2b3138"/>
  <rect x="96" y="170" width="128" height="24" fill="#3b4148"/>
  <rect x="104" y="172" width="16" height="20" rx="6" fill="#d7c27a" stroke="#8c7a2a"/><rect x="128" y="172" width="16" height="20" rx="6" fill="#d7c27a" stroke="#8c7a2a"/><rect x="152" y="172" width="16" height="20" rx="6" fill="#d7c27a" stroke="#8c7a2a"/><rect x="176" y="172" width="16" height="20" rx="6" fill="#d7c27a" stroke="#8c7a2a"/><rect x="200" y="172" width="16" height="20" rx="6" fill="#d7c27a" stroke="#8c7a2a"/>
  <text x="112" y="186" font-family="Arial, Helvetica, sans-serif" font-size="8" font-weight="700" fill="#33404a" text-anchor="middle" opacity="0.92">0</text><text x="136" y="186" font-family="Arial, Helvetica, sans-serif" font-size="8" font-weight="700" fill="#33404a" text-anchor="middle" opacity="0.92">1</text><text x="160" y="186" font-family="Arial, Helvetica, sans-serif" font-size="8" font-weight="700" fill="#33404a" text-anchor="middle" opacity="0.92">2</text><text x="184" y="186" font-family="Arial, Helvetica, sans-serif" font-size="7" font-weight="700" fill="#33404a" text-anchor="middle" opacity="0.92">3V</text><text x="208" y="186" font-family="Arial, Helvetica, sans-serif" font-size="6" font-weight="700" fill="#33404a" text-anchor="middle" opacity="0.92">GND</text>
  <rect x="150" y="26" width="20" height="10" rx="2" fill="#aeb6bb" stroke="#6d777d"/>
</svg>
