<svg xmlns="http://www.w3.org/2000/svg" viewBox="0 0 320 240" width="320" height="240" role="img" aria-label="4x4 membrane keypad: flat dark panel with sixteen keys labelled 0 to 9, A to D, star and hash, and a flat ribbon with eight pins">
  <title>4x4 membrane keypad: flat dark panel with sixteen keys labelled 0 to 9, A to D, star and hash, and a flat ribbon with eight pins</title>
  <ellipse cx="160" cy="224" rx="70" ry="7" fill="#121a20" opacity="0.16"/>
  <rect x="143" y="150" width="34" height="44" fill="#d9b24c" stroke="#8d6d1c" stroke-width="1"/>
  <rect x="148" y="150" width="24" height="44" fill="#f0d27a" opacity="0.6"/>
  <rect x="144" y="196" width="2.4" height="16" fill="#d7c27a" stroke="#8a7a3a" stroke-width="0.5"/>
  <rect x="148.2" y="196" width="2.4" height="16" fill="#d7c27a" stroke="#8a7a3a" stroke-width="0.5"/>
  <rect x="152.4" y="196" width="2.4" height="16" fill="#d7c27a" stroke="#8a7a3a" stroke-width="0.5"/>
  <rect x="156.6" y="196" width="2.4" height="16" fill="#d7c27a" stroke="#8a7a3a" stroke-width="0.5"/>
  <rect x="160.8" y="196" width="2.4" height="16" fill="#d7c27a" stroke="#8a7a3a" stroke-width="0.5"/>
  <rect x="165" y="196" width="2.4" height="16" fill="#d7c27a" stroke="#8a7a3a" stroke-width="0.5"/>
  <rect x="169.2" y="196" width="2.4" height="16" fill="#d7c27a" stroke="#8a7a3a" stroke-width="0.5"/>
  <rect x="173.4" y="196" width="2.4" height="16" fill="#d7c27a" stroke="#8a7a3a" stroke-width="0.5"/>
  <rect x="143" y="192" width="34" height="6" rx="1" fill="#121a20"/>
  <rect x="92" y="12" width="136" height="142" rx="8" fill="#2c3238" stroke="#14181b" stroke-width="2"/>
  <rect x="104" y="24" width="25" height="26" rx="5" fill="#d5dade" stroke="#8c969c" stroke-width="1.2"/>
  <rect x="107" y="26" width="19" height="5" rx="2.5" fill="#fff" opacity="0.35"/>
  <text x="116.5" y="43" font-family="Arial, Helvetica, sans-serif" font-size="12" font-weight="700" fill="#2c3238" text-anchor="middle">1</text>
  <rect x="133" y="24" width="25" height="26" rx="5" fill="#d5dade" stroke="#8c969c" stroke-width="1.2"/>
  <rect x="136" y="26" width="19" height="5" rx="2.5" fill="#fff" opacity="0.35"/>
  <text x="145.5" y="43" font-family="Arial, Helvetica, sans-serif" font-size="12" font-weight="700" fill="#2c3238" text-anchor="middle">2</text>
  <rect x="162" y="24" width="25" height="26" rx="5" fill="#d5dade" stroke="#8c969c" stroke-width="1.2"/>
  <rect x="165" y="26" width="19" height="5" rx="2.5" fill="#fff" opacity="0.35"/>
  <text x="174.5" y="43" font-family="Arial, Helvetica, sans-serif" font-size="12" font-weight="700" fill="#2c3238" text-anchor="middle">3</text>
  <rect x="191" y="24" width="25" height="26" rx="5" fill="#d9534f" stroke="#9e2f2b" stroke-width="1.2"/>
  <rect x="194" y="26" width="19" height="5" rx="2.5" fill="#fff" opacity="0.35"/>
  <text x="203.5" y="43" font-family="Arial, Helvetica, sans-serif" font-size="12" font-weight="700" fill="#fff" text-anchor="middle">A</text>
  <rect x="104" y="55" width="25" height="26" rx="5" fill="#d5dade" stroke="#8c969c" stroke-width="1.2"/>
  <rect x="107" y="57" width="19" height="5" rx="2.5" fill="#fff" opacity="0.35"/>
  <text x="116.5" y="74" font-family="Arial, Helvetica, sans-serif" font-size="12" font-weight="700" fill="#2c3238" text-anchor="middle">4</text>
  <rect x="133" y="55" width="25" height="26" rx="5" fill="#d5dade" stroke="#8c969c" stroke-width="1.2"/>
  <rect x="136" y="57" width="19" height="5" rx="2.5" fill="#fff" opacity="0.35"/>
  <text x="145.5" y="74" font-family="Arial, Helvetica, sans-serif" font-size="12" font-weight="700" fill="#2c3238" text-anchor="middle">5</text>
  <rect x="162" y="55" width="25" height="26" rx="5" fill="#d5dade" stroke="#8c969c" stroke-width="1.2"/>
  <rect x="165" y="57" width="19" height="5" rx="2.5" fill="#fff" opacity="0.35"/>
  <text x="174.5" y="74" font-family="Arial, Helvetica, sans-serif" font-size="12" font-weight="700" fill="#2c3238" text-anchor="middle">6</text>
  <rect x="191" y="55" width="25" height="26" rx="5" fill="#d9534f" stroke="#9e2f2b" stroke-width="1.2"/>
  <rect x="194" y="57" width="19" height="5" rx="2.5" fill="#fff" opacity="0.35"/>
  <text x="203.5" y="74" font-family="Arial, Helvetica, sans-serif" font-size="12" font-weight="700" fill="#fff" text-anchor="middle">B</text>
  <rect x="104" y="86" width="25" height="26" rx="5" fill="#d5dade" stroke="#8c969c" stroke-width="1.2"/>
  <rect x="107" y="88" width="19" height="5" rx="2.5" fill="#fff" opacity="0.35"/>
  <text x="116.5" y="105" font-family="Arial, Helvetica, sans-serif" font-size="12" font-weight="700" fill="#2c3238" text-anchor="middle">7</text>
  <rect x="133" y="86" width="25" height="26" rx="5" fill="#d5dade" stroke="#8c969c" stroke-width="1.2"/>
  <rect x="136" y="88" width="19" height="5" rx="2.5" fill="#fff" opacity="0.35"/>
  <text x="145.5" y="105" font-family="Arial, Helvetica, sans-serif" font-size="12" font-weight="700" fill="#2c3238" text-anchor="middle">8</text>
  <rect x="162" y="86" width="25" height="26" rx="5" fill="#d5dade" stroke="#8c969c" stroke-width="1.2"/>
  <rect x="165" y="88" width="19" height="5" rx="2.5" fill="#fff" opacity="0.35"/>
  <text x="174.5" y="105" font-family="Arial, Helvetica, sans-serif" font-size="12" font-weight="700" fill="#2c3238" text-anchor="middle">9</text>
  <rect x="191" y="86" width="25" height="26" rx="5" fill="#d9534f" stroke="#9e2f2b" stroke-width="1.2"/>
  <rect x="194" y="88" width="19" height="5" rx="2.5" fill="#fff" opacity="0.35"/>
  <text x="203.5" y="105" font-family="Arial, Helvetica, sans-serif" font-size="12" font-weight="700" fill="#fff" text-anchor="middle">C</text>
  <rect x="104" y="117" width="25" height="26" rx="5" fill="#d5dade" stroke="#8c969c" stroke-width="1.2"/>
  <rect x="107" y="119" width="19" height="5" rx="2.5" fill="#fff" opacity="0.35"/>
  <text x="116.5" y="136" font-family="Arial, Helvetica, sans-serif" font-size="12" font-weight="700" fill="#2c3238" text-anchor="middle">*</text>
  <rect x="133" y="117" width="25" height="26" rx="5" fill="#d5dade" stroke="#8c969c" stroke-width="1.2"/>
  <rect x="136" y="119" width="19" height="5" rx="2.5" fill="#fff" opacity="0.35"/>
  <text x="145.5" y="136" font-family="Arial, Helvetica, sans-serif" font-size="12" font-weight="700" fill="#2c3238" text-anchor="middle">0</text>
  <rect x="162" y="117" width="25" height="26" rx="5" fill="#d5dade" stroke="#8c969c" stroke-width="1.2"/>
  <rect x="165" y="119" width="19" height="5" rx="2.5" fill="#fff" opacity="0.35"/>
  <text x="174.5" y="136" font-family="Arial, Helvetica, sans-serif" font-size="12" font-weight="700" fill="#2c3238" text-anchor="middle">#</text>
  <rect x="191" y="117" width="25" height="26" rx="5" fill="#d9534f" stroke="#9e2f2b" stroke-width="1.2"/>
  <rect x="194" y="119" width="19" height="5" rx="2.5" fill="#fff" opacity="0.35"/>
  <text x="203.5" y="136" font-family="Arial, Helvetica, sans-serif" font-size="12" font-weight="700" fill="#fff" text-anchor="middle">D</text>
</svg>
