<svg xmlns="http://www.w3.org/2000/svg" viewBox="0 0 320 240" width="320" height="240" role="img" aria-label="Raspberry Pi 4 Model B: green board with a 40 pin header, silver shielded processor, Ethernet and two blue USB 3 plus two USB 2 ports on the right and USB C power with two micro HDMI ports on the bottom edge">
  <title>Raspberry Pi 4 Model B: green board with a 40 pin header, silver shielded processor, Ethernet and two blue USB 3 plus two USB 2 ports on the right and USB C power with two micro HDMI ports on the bottom edge</title>
  <ellipse cx="160" cy="214" rx="134" ry="9" fill="#121a20" opacity="0.16"/>
  <rect x="38" y="40" width="244" height="160" rx="10" fill="#1d7a45" stroke="#124d2c" stroke-width="2"/>
  <rect x="41" y="43" width="238" height="154" rx="8" fill="none" stroke="#fff" stroke-width="1" stroke-opacity="0.12"/>
  <circle cx="52" cy="54" r="5" fill="#b65c2e"/>
  <circle cx="52" cy="54" r="2.8" fill="#0d1a24"/>
  <circle cx="268" cy="54" r="5" fill="#b65c2e"/>
  <circle cx="268" cy="54" r="2.8" fill="#0d1a24"/>
  <circle cx="52" cy="186" r="5" fill="#b65c2e"/>
  <circle cx="52" cy="186" r="2.8" fill="#0d1a24"/>
  <circle cx="268" cy="186" r="5" fill="#b65c2e"/>
  <circle cx="268" cy="186" r="2.8" fill="#0d1a24"/>
  <rect x="80" y="44" width="140" height="16" rx="1.5" fill="#121a20"/>
  <circle cx="86" cy="48.5" r="1.9" fill="#d7c27a"/>
  <circle cx="86" cy="55.5" r="1.9" fill="#d7c27a"/>
  <circle cx="92.74" cy="48.5" r="1.9" fill="#d7c27a"/>
  <circle cx="92.74" cy="55.5" r="1.9" fill="#d7c27a"/>
  <circle cx="99.47" cy="48.5" r="1.9" fill="#d7c27a"/>
  <circle cx="99.47" cy="55.5" r="1.9" fill="#d7c27a"/>
  <circle cx="106.21" cy="48.5" r="1.9" fill="#d7c27a"/>
  <circle cx="106.21" cy="55.5" r="1.9" fill="#d7c27a"/>
  <circle cx="112.95" cy="48.5" r="1.9" fill="#d7c27a"/>
  <circle cx="112.95" cy="55.5" r="1.9" fill="#d7c27a"/>
  <circle cx="119.68" cy="48.5" r="1.9" fill="#d7c27a"/>
  <circle cx="119.68" cy="55.5" r="1.9" fill="#d7c27a"/>
  <circle cx="126.42" cy="48.5" r="1.9" fill="#d7c27a"/>
  <circle cx="126.42" cy="55.5" r="1.9" fill="#d7c27a"/>
  <circle cx="133.16" cy="48.5" r="1.9" fill="#d7c27a"/>
  <circle cx="133.16" cy="55.5" r="1.9" fill="#d7c27a"/>
  <circle cx="139.89" cy="48.5" r="1.9" fill="#d7c27a"/>
  <circle cx="139.89" cy="55.5" r="1.9" fill="#d7c27a"/>
  <circle cx="146.63" cy="48.5" r="1.9" fill="#d7c27a"/>
  <circle cx="146.63" cy="55.5" r="1.9" fill="#d7c27a"/>
  <circle cx="153.37" cy="48.5" r="1.9" fill="#d7c27a"/>
  <circle cx="153.37" cy="55.5" r="1.9" fill="#d7c27a"/>
  <circle cx="160.11" cy="48.5" r="1.9" fill="#d7c27a"/>
  <circle cx="160.11" cy="55.5" r="1.9" fill="#d7c27a"/>
  <circle cx="166.84" cy="48.5" r="1.9" fill="#d7c27a"/>
  <circle cx="166.84" cy="55.5" r="1.9" fill="#d7c27a"/>
  <circle cx="173.58" cy="48.5" r="1.9" fill="#d7c27a"/>
  <circle cx="173.58" cy="55.5" r="1.9" fill="#d7c27a"/>
  <circle cx="180.32" cy="48.5" r="1.9" fill="#d7c27a"/>
  <circle cx="180.32" cy="55.5" r="1.9" fill="#d7c27a"/>
  <circle cx="187.05" cy="48.5" r="1.9" fill="#d7c27a"/>
  <circle cx="187.05" cy="55.5" r="1.9" fill="#d7c27a"/>
  <circle cx="193.79" cy="48.5" r="1.9" fill="#d7c27a"/>
  <circle cx="193.79" cy="55.5" r="1.9" fill="#d7c27a"/>
  <circle cx="200.53" cy="48.5" r="1.9" fill="#d7c27a"/>
  <circle cx="200.53" cy="55.5" r="1.9" fill="#d7c27a"/>
  <circle cx="207.26" cy="48.5" r="1.9" fill="#d7c27a"/>
  <circle cx="207.26" cy="55.5" r="1.9" fill="#d7c27a"/>
  <circle cx="214" cy="48.5" r="1.9" fill="#d7c27a"/>
  <circle cx="214" cy="55.5" r="1.9" fill="#d7c27a"/>
  <rect x="26" y="98" width="36" height="30" rx="2" fill="#c9cfd3" stroke="#6d777d" stroke-width="1.2" opacity="0.85"/>
  <rect x="31" y="103" width="26" height="20" rx="1.5" fill="#2b4a8a" opacity="0.55"/>
  <rect x="246" y="48" width="50" height="52" rx="2" fill="#aeb6bb" stroke="#6d777d" stroke-width="1.6"/>
  <rect x="254" y="53" width="40" height="42" rx="1.5" fill="#14181b"/>
  <rect x="262" y="71" width="24" height="6" rx="0.8" fill="#d7c27a" opacity="0.9"/>
  <circle cx="289" cy="56" r="1.6" fill="#3fb868"/>
  <circle cx="289" cy="92" r="1.6" fill="#e0a030"/>
  <rect x="246" y="104" width="50" height="36" rx="2" fill="#aeb6bb" stroke="#6d777d" stroke-width="1.6"/>
  <rect x="254" y="108" width="40" height="28" rx="1" fill="#14181b"/>
  <rect x="256" y="120.5" width="36" height="3" rx="0.5" fill="#2c6fd0"/>
  <rect x="246" y="146" width="50" height="36" rx="2" fill="#aeb6bb" stroke="#6d777d" stroke-width="1.6"/>
  <rect x="254" y="150" width="40" height="28" rx="1" fill="#14181b"/>
  <rect x="256" y="162.5" width="36" height="3" rx="0.5" fill="#8a9399"/>
  <rect x="62" y="188" width="30" height="18" rx="5" fill="#aeb6bb" stroke="#6d777d" stroke-width="1.6"/>
  <rect x="66" y="194" width="22" height="8" rx="3.5" fill="#14181b"/>
  <rect x="70" y="196.5" width="14" height="2.4" rx="1" fill="#4b565c"/>
  <rect x="104" y="188" width="22" height="18" rx="2" fill="#aeb6bb" stroke="#6d777d" stroke-width="1.6"/>
  <rect x="107" y="194" width="16" height="7" rx="1.5" fill="#14181b"/>
  <rect x="134" y="188" width="22" height="18" rx="2" fill="#aeb6bb" stroke="#6d777d" stroke-width="1.6"/>
  <rect x="137" y="194" width="16" height="7" rx="1.5" fill="#14181b"/>
  <rect x="172" y="186" width="16" height="20" rx="2" fill="#23292d" stroke="#14181b" stroke-width="1.6"/>
  <circle cx="180" cy="201" r="4.5" fill="#0d1114"/>
  <rect x="214" y="187" width="22" height="8" rx="1.5" fill="#e8e4d8" stroke="#9a9686" stroke-width="1"/>
  <rect x="216" y="189" width="18" height="4" rx="1" fill="#25292c"/>
  <rect x="70" y="66" width="8" height="30" rx="1.5" fill="#e8e4d8" stroke="#9a9686" stroke-width="1"/>
  <rect x="72" y="68" width="4" height="26" rx="1" fill="#25292c"/>
  <rect x="114" y="90" width="56" height="52" rx="3" fill="#aeb6bb" stroke="#6d777d" stroke-width="1.6"/>
  <rect x="118" y="94" width="48" height="44" rx="2" fill="#c9cfd3"/>
  <rect x="121" y="97" width="42" height="6" rx="1" fill="#fff" opacity="0.25"/>
  <rect x="184" y="100" width="22" height="22" rx="2" fill="#14181b"/>
  <rect x="180" y="134" width="30" height="22" rx="2" fill="#aeb6bb" stroke="#6d777d" stroke-width="1.2"/>
  <rect x="212" y="102" width="24" height="18" rx="2" fill="#14181b"/>
  <circle cx="228" cy="188" r="2.4" fill="#3fb868"/>
  <circle cx="236" cy="188" r="2.4" fill="#e04a3a"/>
</svg>
