<svg xmlns="http://www.w3.org/2000/svg" viewBox="0 0 216 168" width="216" height="168" role="img" aria-label="4 AA NiMH cells in a holder">
  <title>4x AA NiMH cell holder (CC0)</title>
  <rect x="8" y="30" width="200" height="122" rx="10" fill="#eceff1" stroke="#90a4ae" stroke-width="1.5"/>
  <rect x="16" y="36" width="40" height="110" rx="8" fill="#b2dfdb" stroke="#00695c" stroke-width="1.5"/>
  <rect x="21" y="54" width="30" height="18" rx="2" fill="#00897b"/>
  <text x="36" y="67" text-anchor="middle" font-family="ui-monospace, monospace" font-size="9" font-weight="700" fill="#ffffff">1.2V</text>
  <text x="36" y="98" text-anchor="middle" font-family="ui-monospace, monospace" font-size="13" fill="#004d40">AA</text>
  <text x="36" y="112" text-anchor="middle" font-family="ui-monospace, monospace" font-size="8" fill="#004d40">NiMH</text>
  <rect x="30" y="30" width="12" height="6" rx="1.5" fill="#b0bec5" stroke="#78909c" stroke-width="1"/>
  <text x="36" y="46" text-anchor="middle" font-family="ui-monospace, monospace" font-size="10" fill="#c62828">+</text>
  <text x="36" y="140" text-anchor="middle" font-family="ui-monospace, monospace" font-size="10" fill="#212121">&#8722;</text>
  <rect x="64" y="36" width="40" height="110" rx="8" fill="#b2dfdb" stroke="#00695c" stroke-width="1.5"/>
  <rect x="69" y="54" width="30" height="18" rx="2" fill="#00897b"/>
  <text x="84" y="67" text-anchor="middle" font-family="ui-monospace, monospace" font-size="9" font-weight="700" fill="#ffffff">1.2V</text>
  <text x="84" y="98" text-anchor="middle" font-family="ui-monospace, monospace" font-size="13" fill="#004d40">AA</text>
  <text x="84" y="112" text-anchor="middle" font-family="ui-monospace, monospace" font-size="8" fill="#004d40">NiMH</text>
  <rect x="78" y="146" width="12" height="6" rx="1.5" fill="#b0bec5" stroke="#78909c" stroke-width="1"/>
  <text x="84" y="140" text-anchor="middle" font-family="ui-monospace, monospace" font-size="10" fill="#c62828">+</text>
  <text x="84" y="46" text-anchor="middle" font-family="ui-monospace, monospace" font-size="10" fill="#212121">&#8722;</text>
  <rect x="112" y="36" width="40" height="110" rx="8" fill="#b2dfdb" stroke="#00695c" stroke-width="1.5"/>
  <rect x="117" y="54" width="30" height="18" rx="2" fill="#00897b"/>
  <text x="132" y="67" text-anchor="middle" font-family="ui-monospace, monospace" font-size="9" font-weight="700" fill="#ffffff">1.2V</text>
  <text x="132" y="98" text-anchor="middle" font-family="ui-monospace, monospace" font-size="13" fill="#004d40">AA</text>
  <text x="132" y="112" text-anchor="middle" font-family="ui-monospace, monospace" font-size="8" fill="#004d40">NiMH</text>
  <rect x="126" y="30" width="12" height="6" rx="1.5" fill="#b0bec5" stroke="#78909c" stroke-width="1"/>
  <text x="132" y="46" text-anchor="middle" font-family="ui-monospace, monospace" font-size="10" fill="#c62828">+</text>
  <text x="132" y="140" text-anchor="middle" font-family="ui-monospace, monospace" font-size="10" fill="#212121">&#8722;</text>
  <rect x="160" y="36" width="40" height="110" rx="8" fill="#b2dfdb" stroke="#00695c" stroke-width="1.5"/>
  <rect x="165" y="54" width="30" height="18" rx="2" fill="#00897b"/>
  <text x="180" y="67" text-anchor="middle" font-family="ui-monospace, monospace" font-size="9" font-weight="700" fill="#ffffff">1.2V</text>
  <text x="180" y="98" text-anchor="middle" font-family="ui-monospace, monospace" font-size="13" fill="#004d40">AA</text>
  <text x="180" y="112" text-anchor="middle" font-family="ui-monospace, monospace" font-size="8" fill="#004d40">NiMH</text>
  <rect x="174" y="146" width="12" height="6" rx="1.5" fill="#b0bec5" stroke="#78909c" stroke-width="1"/>
  <text x="180" y="140" text-anchor="middle" font-family="ui-monospace, monospace" font-size="10" fill="#c62828">+</text>
  <text x="180" y="46" text-anchor="middle" font-family="ui-monospace, monospace" font-size="10" fill="#212121">&#8722;</text>
  <path d="M36 146 V158 H84 V152" fill="none" stroke="#546e7a" stroke-width="2"/>
  <path d="M84 36 V24 H132 V30" fill="none" stroke="#546e7a" stroke-width="2"/>
  <path d="M132 146 V158 H180 V152" fill="none" stroke="#546e7a" stroke-width="2"/>
  <path d="M36 30 V16" fill="none" stroke="#c62828" stroke-width="2"/>
  <rect id="term-plus" x="24" y="4" width="24" height="12" rx="2" fill="#c62828" stroke="#8e0000" stroke-width="1.5"/>
  <text x="18" y="14" text-anchor="middle" font-family="ui-monospace, monospace" font-size="11" fill="#c62828">+</text>
  <path d="M180 36 V16" fill="none" stroke="#212121" stroke-width="2"/>
  <rect id="term-minus" x="168" y="4" width="24" height="12" rx="2" fill="#212121" stroke="#000" stroke-width="1.5"/>
  <text x="198" y="14" text-anchor="middle" font-family="ui-monospace, monospace" font-size="11" fill="#212121">&#8722;</text>
</svg>
