<svg xmlns="http://www.w3.org/2000/svg" viewBox="0 0 320 240" width="320" height="240" role="img" aria-label="Tilt switch module: dark blue board with a small metal tilt sensor can"><title>Tilt switch module</title>
<defs><linearGradient id="metal" x1="0" y1="0" x2="0" y2="1"><stop offset="0" stop-color="#e6eaec"/><stop offset="1" stop-color="#9aa3a8"/></linearGradient><linearGradient id="pcb" x1="0" y1="0" x2="0" y2="1"><stop offset="0" stop-color="#2a5a96"/><stop offset="1" stop-color="#19365e"/></linearGradient><linearGradient id="can" x1="0" y1="0" x2="0" y2="1"><stop offset="0" stop-color="#e6eaec"/><stop offset="1" stop-color="#9aa3a8"/></linearGradient></defs>
<ellipse cx="160" cy="206" rx="118" ry="11" fill="#121a20" opacity="0.16"/>
<rect x="42" y="52" width="236" height="136" rx="8" fill="url(#pcb)" stroke="#0e2340" stroke-width="2"/>
<rect x="44" y="54" width="232" height="8" rx="4" fill="#fff" opacity="0.12"/>
<circle cx="62" cy="72" r="6" fill="#e9edef" stroke="#8c969b" stroke-width="2"/><circle cx="62" cy="168" r="6" fill="#e9edef" stroke="#8c969b" stroke-width="2"/>
<rect x="86" y="92" width="12" height="12" rx="2" fill="#14181c"/><circle cx="92" cy="98" r="3.5" fill="#d9b84a"/><rect x="86" y="114" width="12" height="12" rx="2" fill="#14181c"/><circle cx="92" cy="120" r="3.5" fill="#d9b84a"/><rect x="86" y="136" width="12" height="12" rx="2" fill="#14181c"/><circle cx="92" cy="142" r="3.5" fill="#d9b84a"/>
<g transform="rotate(-24 170 120)"><rect x="124" y="98" width="92" height="44" rx="22" fill="url(#can)" stroke="#5a656b" stroke-width="2"/>
<rect x="132" y="104" width="76" height="8" rx="4" fill="#fff" opacity="0.5"/>
<circle cx="196" cy="125" r="7" fill="#9aa3a8" stroke="#5a656b" stroke-width="2"/></g>
<rect x="236" y="84" width="22" height="12" fill="#29261c"/><rect x="236" y="106" width="22" height="12" fill="#29261c"/><rect x="236" y="128" width="22" height="12" fill="#29261c"/>
<circle cx="238" cy="164" r="5" fill="#e23a30"/>
</svg>
