<svg xmlns="http://www.w3.org/2000/svg" viewBox="0 0 320 240" width="320" height="240" role="img" aria-label="Round black passive buzzer seen from the side with its green circuit board underneath and two metal pins">
<title>Round black passive buzzer seen from the side with its green circuit board underneath and two metal pins</title>
<defs><linearGradient id="m" x1="0" x2="1"><stop offset="0" stop-color="#8d949a"/><stop offset=".45" stop-color="#e6eaed"/><stop offset="1" stop-color="#868d93"/></linearGradient><linearGradient id="mv" x1="0" y1="0" x2="0" y2="1"><stop offset="0" stop-color="#eef1f3"/><stop offset="1" stop-color="#8d949a"/></linearGradient><linearGradient id="side" x1="0" x2="1"><stop offset="0" stop-color="#0b0f13"/><stop offset=".35" stop-color="#2a343d"/><stop offset="1" stop-color="#0b0f13"/></linearGradient></defs>
<ellipse cx="160" cy="214" rx="104" ry="9" fill="#121a20" opacity="0.16"/>
<rect x="124" y="172" width="8" height="38" rx="2" fill="url(#m)"/><rect x="188" y="172" width="8" height="38" rx="2" fill="url(#m)"/>
<ellipse cx="160" cy="166" rx="80" ry="26" fill="#1c6b3a" stroke="#0f4426" stroke-width="2"/>
<ellipse cx="160" cy="164" rx="64" ry="19" fill="#2f9a58"/>
<circle cx="138" cy="166" r="2.4" fill="#d7c27a" /><circle cx="182" cy="166" r="2.4" fill="#d7c27a" /><path d="M142 166 C152 158 168 174 178 166" stroke="#d7c27a" stroke-width="1.6" fill="none"/>
<path d="M80 100 V150 A80 28 0 0 0 240 150 V100 Z" fill="url(#side)"/>
<ellipse cx="160" cy="100" rx="80" ry="30" fill="#2a343d" stroke="#0b0f13" stroke-width="2"/>
<ellipse cx="160" cy="98" rx="66" ry="23" fill="none" stroke="#4a5760" stroke-width="1.5" opacity=".7"/>
<ellipse cx="160" cy="97" rx="14" ry="6" fill="#05080a"/>
</svg>
